HIERARCHY
ROOT Hips
{
    OFFSET 0.000000 97.120003 0.000000
    CHANNELS 6 Xposition Yposition Zposition Yrotation Xrotation Zrotation
    JOINT RightUpLeg
    {
        OFFSET -11.000000 -0.000000 0.000000
        CHANNELS 3 Yrotation Xrotation Zrotation
        JOINT RightLeg
        {
            OFFSET 0.000000 -45.062000 0.000000
            CHANNELS 3 Yrotation Xrotation Zrotation
            JOINT RightFoot
            {
                OFFSET 0.000000 -42.057999 0.000000
                CHANNELS 3 Yrotation Xrotation Zrotation
                End Site
                {
                    OFFSET 0.000000 -10.000000 15.120000
                }
            }
        }
    }
    JOINT LeftUpLeg
    {
        OFFSET 11.000000 -0.000000 0.000000
        CHANNELS 3 Yrotation Xrotation Zrotation
        JOINT LeftLeg
        {
            OFFSET 0.000000 -45.062000 0.000000
            CHANNELS 3 Yrotation Xrotation Zrotation
            JOINT LeftFoot
            {
                OFFSET 0.000000 -42.057999 0.000000
                CHANNELS 3 Yrotation Xrotation Zrotation
                End Site
                {
                    OFFSET 0.000000 -10.000000 15.120000
                }
            }
        }
    }
    JOINT Spine
    {
        OFFSET 0.000000 8.120000 0.000000
        CHANNELS 3 Yrotation Xrotation Zrotation
        JOINT Spine1
        {
            OFFSET 0.000000 17.980000 0.000000
            CHANNELS 3 Yrotation Xrotation Zrotation
            JOINT Spine2
            {
                OFFSET 0.000000 12.760000 0.000000
                CHANNELS 3 Yrotation Xrotation Zrotation
                JOINT Neck
                {
                    OFFSET 0.000000 19.139999 0.000000
                    CHANNELS 3 Yrotation Xrotation Zrotation
                    JOINT Neck1
                    {
                        OFFSET 0.000000 4.250000 0.000000
                        CHANNELS 3 Yrotation Xrotation Zrotation
                        JOINT Head
                        {
                            OFFSET 0.000000 4.250000 0.000000
                            CHANNELS 3 Yrotation Xrotation Zrotation
                            End Site
                            {
                                OFFSET 0.000000 19.120001 0.000000
                            }
                        }
                    }
                }
                JOINT RightShoulder
                {
                    OFFSET -2.900000 13.340000 0.000000
                    CHANNELS 3 Yrotation Xrotation Zrotation
                    JOINT RightArm
                    {
                        OFFSET -16.100000 0.000000 0.000000
                        CHANNELS 3 Yrotation Xrotation Zrotation
                        JOINT RightForeArm
                        {
                            OFFSET -28.000000 0.000000 0.000000
                            CHANNELS 3 Yrotation Xrotation Zrotation
                            JOINT RightHand
                            {
                                OFFSET -26.000000 0.000000 0.000000
                                CHANNELS 3 Yrotation Xrotation Zrotation
                                JOINT RightHandThumb1
                                {
                                    OFFSET -1.937000 -0.484000 2.518000
                                    CHANNELS 3 Yrotation Xrotation Zrotation
                                    JOINT RightHandThumb2
                                    {
                                        OFFSET -3.872000 0.000000 0.000000
                                        CHANNELS 3 Yrotation Xrotation Zrotation
                                        JOINT RightHandThumb3
                                        {
                                            OFFSET -2.690000 0.000000 0.000000
                                            CHANNELS 3 Yrotation Xrotation Zrotation
                                            End Site
                                            {
                                                OFFSET -2.537000 0.000000 0.000000
                                            }
                                        }
                                    }
                                }
                                JOINT RightInHandIndex
                                {
                                    OFFSET -3.389000 0.535000 2.080000
                                    CHANNELS 3 Yrotation Xrotation Zrotation
                                    JOINT RightHandIndex1
                                    {
                                        OFFSET -5.485000 -0.096000 1.051000
                                        CHANNELS 3 Yrotation Xrotation Zrotation
                                        JOINT RightHandIndex2
                                        {
                                            OFFSET -3.806000 0.000000 0.000000
                                            CHANNELS 3 Yrotation Xrotation Zrotation
                                            JOINT RightHandIndex3
                                            {
                                                OFFSET -2.158000 0.000000 0.000000
                                                CHANNELS 3 Yrotation Xrotation Zrotation
                                                End Site
                                                {
                                                    OFFSET -1.898000 0.000000 0.000000
                                                }
                                            }
                                        }
                                    }
                                }
                                JOINT RightInHandMiddle
                                {
                                    OFFSET -3.556000 0.544000 0.796000
                                    CHANNELS 3 Yrotation Xrotation Zrotation
                                    JOINT RightHandMiddle1
                                    {
                                        OFFSET -5.441000 -0.088000 0.330000
                                        CHANNELS 3 Yrotation Xrotation Zrotation
                                        JOINT RightHandMiddle2
                                        {
                                            OFFSET -4.153000 0.000000 0.000000
                                            CHANNELS 3 Yrotation Xrotation Zrotation
                                            JOINT RightHandMiddle3
                                            {
                                                OFFSET -2.603000 0.000000 0.000000
                                                CHANNELS 3 Yrotation Xrotation Zrotation
                                                End Site
                                                {
                                                    OFFSET -2.076000 0.000000 0.000000
                                                }
                                            }
                                        }
                                    }
                                }
                                JOINT RightInHandRing
                                {
                                    OFFSET -3.539000 0.566000 -0.136000
                                    CHANNELS 3 Yrotation Xrotation Zrotation
                                    JOINT RightHandRing1
                                    {
                                        OFFSET -4.873000 -0.023000 -0.504000
                                        CHANNELS 3 Yrotation Xrotation Zrotation
                                        JOINT RightHandRing2
                                        {
                                            OFFSET -3.619000 0.000000 0.000000
                                            CHANNELS 3 Yrotation Xrotation Zrotation
                                            JOINT RightHandRing3
                                            {
                                                OFFSET -2.511000 0.000000 0.000000
                                                CHANNELS 3 Yrotation Xrotation Zrotation
                                                End Site
                                                {
                                                    OFFSET -1.952000 0.000000 0.000000
                                                }
                                            }
                                        }
                                    }
                                }
                                JOINT RightInHandPinky
                                {
                                    OFFSET -3.324000 0.494000 -1.264000
                                    CHANNELS 3 Yrotation Xrotation Zrotation
                                    JOINT RightHandPinky1
                                    {
                                        OFFSET -4.354000 -0.023000 -1.147000
                                        CHANNELS 3 Yrotation Xrotation Zrotation
                                        JOINT RightHandPinky2
                                        {
                                            OFFSET -2.898000 0.000000 0.000000
                                            CHANNELS 3 Yrotation Xrotation Zrotation
                                            JOINT RightHandPinky3
                                            {
                                                OFFSET -1.831000 0.000000 0.000000
                                                CHANNELS 3 Yrotation Xrotation Zrotation
                                                End Site
                                                {
                                                    OFFSET -1.730000 0.000000 0.000000
                                                }
                                            }
                                        }
                                    }
                                }
                            }
                        }
                    }
                }
                JOINT LeftShoulder
                {
                    OFFSET 2.900000 13.340000 0.000000
                    CHANNELS 3 Yrotation Xrotation Zrotation
                    JOINT LeftArm
                    {
                        OFFSET 16.100000 0.000000 0.000000
                        CHANNELS 3 Yrotation Xrotation Zrotation
                        JOINT LeftForeArm
                        {
                            OFFSET 28.000000 0.000000 0.000000
                            CHANNELS 3 Yrotation Xrotation Zrotation
                            JOINT LeftHand
                            {
                                OFFSET 26.000000 0.000000 0.000000
                                CHANNELS 3 Yrotation Xrotation Zrotation
                                JOINT LeftHandThumb1
                                {
                                    OFFSET 1.937000 -0.484000 2.518000
                                    CHANNELS 3 Yrotation Xrotation Zrotation
                                    JOINT LeftHandThumb2
                                    {
                                        OFFSET 3.872000 0.000000 0.000000
                                        CHANNELS 3 Yrotation Xrotation Zrotation
                                        JOINT LeftHandThumb3
                                        {
                                            OFFSET 2.690000 0.000000 0.000000
                                            CHANNELS 3 Yrotation Xrotation Zrotation
                                            End Site
                                            {
                                                OFFSET 2.537000 0.000000 0.000000
                                            }
                                        }
                                    }
                                }
                                JOINT LeftInHandIndex
                                {
                                    OFFSET 3.389000 0.535000 2.080000
                                    CHANNELS 3 Yrotation Xrotation Zrotation
                                    JOINT LeftHandIndex1
                                    {
                                        OFFSET 5.485000 -0.096000 1.051000
                                        CHANNELS 3 Yrotation Xrotation Zrotation
                                        JOINT LeftHandIndex2
                                        {
                                            OFFSET 3.806000 0.000000 0.000000
                                            CHANNELS 3 Yrotation Xrotation Zrotation
                                            JOINT LeftHandIndex3
                                            {
                                                OFFSET 2.158000 0.000000 0.000000
                                                CHANNELS 3 Yrotation Xrotation Zrotation
                                                End Site
                                                {
                                                    OFFSET 1.898000 0.000000 0.000000
                                                }
                                            }
                                        }
                                    }
                                }
                                JOINT LeftInHandMiddle
                                {
                                    OFFSET 3.556000 0.544000 0.796000
                                    CHANNELS 3 Yrotation Xrotation Zrotation
                                    JOINT LeftHandMiddle1
                                    {
                                        OFFSET 5.441000 -0.088000 0.330000
                                        CHANNELS 3 Yrotation Xrotation Zrotation
                                        JOINT LeftHandMiddle2
                                        {
                                            OFFSET 4.153000 0.000000 0.000000
                                            CHANNELS 3 Yrotation Xrotation Zrotation
                                            JOINT LeftHandMiddle3
                                            {
                                                OFFSET 2.603000 0.000000 0.000000
                                                CHANNELS 3 Yrotation Xrotation Zrotation
                                                End Site
                                                {
                                                    OFFSET 2.076000 0.000000 0.000000
                                                }
                                            }
                                        }
                                    }
                                }
                                JOINT LeftInHandRing
                                {
                                    OFFSET 3.539000 0.566000 -0.136000
                                    CHANNELS 3 Yrotation Xrotation Zrotation
                                    JOINT LeftHandRing1
                                    {
                                        OFFSET 4.873000 -0.023000 -0.504000
                                        CHANNELS 3 Yrotation Xrotation Zrotation
                                        JOINT LeftHandRing2
                                        {
                                            OFFSET 3.619000 0.000000 0.000000
                                            CHANNELS 3 Yrotation Xrotation Zrotation
                                            JOINT LeftHandRing3
                                            {
                                                OFFSET 2.511000 0.000000 0.000000
                                                CHANNELS 3 Yrotation Xrotation Zrotation
                                                End Site
                                                {
                                                    OFFSET 1.952000 0.000000 0.000000
                                                }
                                            }
                                        }
                                    }
                                }
                                JOINT LeftInHandPinky
                                {
                                    OFFSET 3.324000 0.494000 -1.264000
                                    CHANNELS 3 Yrotation Xrotation Zrotation
                                    JOINT LeftHandPinky1
                                    {
                                        OFFSET 4.354000 -0.023000 -1.147000
                                        CHANNELS 3 Yrotation Xrotation Zrotation
                                        JOINT LeftHandPinky2
                                        {
                                            OFFSET 2.898000 0.000000 0.000000
                                            CHANNELS 3 Yrotation Xrotation Zrotation
                                            JOINT LeftHandPinky3
                                            {
                                                OFFSET 1.831000 0.000000 0.000000
                                                CHANNELS 3 Yrotation Xrotation Zrotation
                                                End Site
                                                {
                                                    OFFSET 1.730000 0.000000 0.000000
                                                }
                                            }
                                        }
                                    }
                                }
                            }
                        }
                    }
                }
            }
        }
    }
}
MOTION
Frames: 4
Frame Time: 0.011111
0.000000 97.119995 0.000000 0.000000 0.000000 0.000000 0.000000 0.000000 0.000000 0.000000 0.000000 0.000000 0.000000 0.000000 0.000000 0.000000 0.000000 0.000000 0.000000 0.000000 0.000000 0.000000 0.000000 0.000000 0.000000 0.000000 0.000000 0.000000 0.000000 0.000000 0.000000 0.000000 0.000000 0.000000 0.000000 0.000000 0.000000 0.000000 0.000000 0.000000 0.000000 0.000000 0.000000 0.000000 0.000000 0.000000 0.000000 0.000000 0.000000 0.000000 0.000000 0.000000 0.000000 0.000000 0.000000 0.000000 0.000000 0.000000 0.000000 0.000000 0.000000 0.000000 0.000000 0.000000 0.000000 0.000000 0.000000 0.000000 0.000000 0.000000 0.000000 0.000000 0.000000 0.000000 0.000000 0.000000 0.000000 0.000000 0.000000 0.000000 0.000000 0.000000 0.000000 0.000000 0.000000 0.000000 0.000000 0.000000 0.000000 0.000000 0.000000 0.000000 0.000000 0.000000 0.000000 0.000000 0.000000 0.000000 0.000000 0.000000 0.000000 0.000000 0.000000 0.000000 0.000000 0.000000 0.000000 0.000000 0.000000 0.000000 0.000000 0.000000 0.000000 0.000000 0.000000 0.000000 0.000000 0.000000 0.000000 0.000000 0.000000 0.000000 0.000000 0.000000 0.000000 0.000000 0.000000 0.000000 0.000000 0.000000 0.000000 0.000000 0.000000 0.000000 0.000000 0.000000 0.000000 0.000000 0.000000 0.000000 0.000000 0.000000 0.000000 0.000000 0.000000 0.000000 0.000000 0.000000 0.000000 0.000000 0.000000 0.000000 0.000000 0.000000 0.000000 0.000000 0.000000 0.000000 0.000000 0.000000 0.000000 0.000000 0.000000 0.000000 0.000000 0.000000 0.000000 0.000000 0.000000 0.000000 0.000000 0.000000 0.000000 0.000000 0.000000 0.000000 0.000000 0.000000 0.000000 0.000000
0.457323 97.237251 0.085863 177.801895 173.462006 177.784317 174.573029 -173.789917 -172.885956 4.110930 5.337297 0.282467 169.410095 -167.606018 176.538696 172.055298 -178.610168 -176.490173 176.987366 -178.773590 177.279297 11.472839 -10.437807 7.911329 2.339973 -0.074817 -0.019059 2.338686 -0.073020 -0.028053 10.913815 -0.041263 -0.048486 180.000000 -179.516907 -179.161667 0.000002 -0.563620 0.868275 160.756561 -179.775589 -179.382401 172.370407 -179.424667 179.943634 10.752537 -5.092194 91.288872 179.501450 -172.041489 179.081406 174.635117 177.522888 172.027496 51.840626 46.908703 10.225947 0.000000 0.000005 6.179938 180.000000 -179.999985 -175.884155 180.000000 -180.000000 179.999985 15.000002 0.000002 25.212013 180.000000 180.000000 -159.371994 180.000000 180.000000 -165.560394 180.000000 -180.000000 179.999985 180.000000 180.000000 -151.051956 0.000002 0.000000 28.948059 180.000000 180.000000 -160.720596 180.000000 -180.000000 179.999985 170.000000 -179.999985 -154.995071 180.000000 -180.000000 -154.995071 0.000000 -0.000000 16.653286 180.000000 -180.000000 179.999985 160.000015 -180.000000 -166.184006 0.000004 0.000001 20.723980 0.000001 -0.000002 13.802166 165.513275 -177.013947 -178.268158 164.109375 -173.212158 95.330299 2.706659 -3.084573 1.469573 3.685870 11.730048 2.745221 140.832199 127.038475 178.579941 179.999985 179.999985 173.287338 0.000009 -0.000010 -4.470644 0.000000 -0.000000 0.000000 165.000015 179.999985 165.267136 0.000018 0.000004 -12.054150 0.000009 -0.000006 -8.437909 0.000000 -0.000000 0.000000 180.000000 180.000000 154.026077 0.000008 0.000003 -25.973900 0.000002 0.000001 -17.298622 0.000000 -0.000000 0.000000 10.000001 -0.000010 -24.947342 180.000000 179.999985 155.052689 180.000000 -180.000000 163.385086 0.000000 -0.000000 0.000000 19.999987 0.000000 -21.890591 179.999985 -179.999985 147.164093 0.000001 -0.000003 -21.868698
0.465192 97.159691 0.096303 177.761368 173.438782 177.765549 174.590775 -173.771210 -172.872498 4.161139 5.336375 0.283527 169.381607 -167.596115 176.559830 172.067490 -178.598160 -176.474152 177.061279 -178.785980 177.267853 11.424962 -10.467986 7.923902 2.340448 -0.080949 0.003910 2.341508 -0.078245 -0.024838 10.926970 -0.046135 -0.045455 0.000003 -0.474709 0.835420 180.000000 -179.446182 -179.134750 160.779327 -179.781555 -179.386551 172.370209 -179.425125 179.955063 10.781580 -5.103059 91.255402 179.513763 -172.013840 179.092728 174.630371 177.501450 172.018646 51.833508 46.894775 10.212149 180.000000 179.999985 -173.820084 180.000000 -179.999985 -175.884155 0.000000 0.000000 0.000003 14.999999 -0.000002 25.208645 0.000000 0.000002 20.625269 0.000002 -0.000000 14.437679 0.000000 0.000000 0.000003 0.000001 0.000002 28.946335 180.000000 180.000000 -151.053680 180.000000 180.000000 -160.721741 0.000000 0.000000 0.000003 170.000000 180.000000 -154.982559 0.000001 -0.000002 25.017452 180.000000 -180.000000 -163.338379 0.000000 0.000000 0.000003 160.000015 179.999985 -166.184494 180.000000 179.999985 -159.276779 179.999985 -179.999985 -166.198334 165.513351 -177.017395 -178.297501 164.077789 -173.231491 95.329849 2.699551 -3.113682 1.463062 3.699605 11.637366 2.700013 140.824432 127.028572 178.575821 0.000014 0.000001 -6.709408 180.000000 179.999985 175.531540 0.000000 0.000000 -0.000007 165.000015 179.999985 165.255463 0.000012 0.000006 -12.063705 0.000006 0.000006 -8.444591 0.000000 0.000000 -0.000007 0.000003 -0.000005 -25.979773 180.000000 180.000000 154.020233 0.000000 -0.000001 -17.302525 0.000000 0.000000 -0.000007 9.999996 -0.000000 -24.933720 180.000000 180.000000 155.066299 180.000000 180.000000 163.394150 0.000000 0.000000 -0.000007 19.999971 -0.000004 -21.880447 0.000004 -0.000001 -32.820686 179.999985 179.999985 158.141388
0.473706 97.140701 0.094228 177.713440 173.382446 177.757294 174.600784 -173.716797 -172.870422 4.213062 5.334795 0.288839 169.364349 -167.586563 176.588455 172.105637 -178.510605 -176.444626 177.196274 -178.838043 177.227432 11.293554 -10.493419 7.936907 2.338238 -0.099279 0.025647 2.345073 -0.095233 -0.026613 10.943584 -0.057411 -0.050815 180.000000 -179.532089 -179.165390 0.000002 -0.545923 0.864406 160.805649 -179.786606 -179.389038 172.369476 -179.446274 179.982071 10.808336 -5.130301 91.202797 179.532074 -171.991852 179.108139 174.634415 177.478745 172.009415 51.826221 46.895401 10.195625 179.999985 -180.000000 -173.824722 0.000000 -0.000000 4.112729 0.000000 0.000000 -0.000003 15.000006 0.000002 25.208958 0.000000 0.000001 20.625500 180.000000 -180.000000 -165.562149 0.000000 0.000000 -0.000003 180.000000 -180.000000 -151.054214 0.000001 -0.000001 28.945795 0.000002 -0.000001 19.277903 0.000000 0.000000 -0.000003 170.000000 -179.999985 -154.984329 0.000000 -0.000000 25.015675 180.000000 -179.999985 -163.339569 0.000000 0.000000 -0.000003 160.000015 -179.999985 -166.186462 180.000000 179.999985 -159.279663 0.000002 -0.000000 13.799726 165.513763 -177.032211 -178.333633 164.047699 -173.242386 95.339165 2.695070 -3.134769 1.460281 3.710807 11.535863 2.656906 140.955490 127.171364 178.742142 0.000007 -0.000003 -6.711981 179.999985 179.999985 175.529816 180.000000 -180.000000 179.999985 165.000000 179.999985 165.236755 0.000003 0.000004 -12.079001 180.000000 179.999985 171.544678 180.000000 -180.000000 179.999985 180.000000 180.000000 154.025833 180.000000 179.999985 154.025833 180.000000 -180.000000 162.701218 180.000000 -180.000000 179.999985 9.999995 -0.000006 -24.925837 0.000004 -0.000000 -24.925819 180.000000 -179.999985 163.399414 180.000000 -180.000000 179.999985 19.999981 0.000004 -21.873360 0.000006 0.000005 -32.810059 180.000000 180.000000 158.148499
